<svg width="24" height="24" viewBox="0 0 24 24" fill="none" xmlns="http://www.w3.org/2000/svg">
<path d="M13.97 4.363C12.996 3.533 11.498 4.226 11.498 5.505V9.493L5.47 4.363C4.496 3.534 2.998 4.227 2.998 5.506V18.499C2.998 19.377 3.705 19.979 4.463 20.001H4.55C4.868 19.991 5.19 19.879 5.47 19.641L11.498 14.511V18.498C11.498 19.777 12.996 20.469 13.97 19.64L21.38 13.334C21.573 13.1697 21.728 12.9655 21.8342 12.7354C21.9405 12.5053 21.9956 12.2549 21.9956 12.0015C21.9956 11.7481 21.9405 11.4977 21.8342 11.2676C21.728 11.0375 21.573 10.8333 21.38 10.669L13.97 4.363V4.363Z" fill="#10b981"/>
</svg>
