<svg width="24" height="24" viewBox="0 0 24 24" fill="none" xmlns="http://www.w3.org/2000/svg">
<path d="M10.03 4.362C11.004 3.532 12.502 4.225 12.502 5.504V9.494L18.529 4.364C19.503 3.534 21.002 4.226 21.002 5.506V18.498C21.002 19.377 20.295 19.978 19.537 20.001H19.45C19.1111 19.9902 18.7862 19.8631 18.53 19.641L12.502 14.511V18.497C12.502 19.776 11.004 20.468 10.029 19.639L2.619 13.333C2.42603 13.1687 2.27104 12.9645 2.16476 12.7344C2.05848 12.5043 2.00343 12.2539 2.00343 12.0005C2.00343 11.7471 2.05848 11.4967 2.16476 11.2666C2.27104 11.0365 2.42603 10.8323 2.619 10.668L10.029 4.362H10.03ZM2.62 10.668L3.106 11.238L2.62 10.668Z" fill="#10b981"/>
</svg>
