<svg width="24" height="24" viewBox="0 0 24 24" fill="none" xmlns="http://www.w3.org/2000/svg">
<path d="M6.25 3C5.65326 3 5.08097 3.23705 4.65901 3.65901C4.23705 4.08097 4 4.65326 4 5.25V18.75C4 19.3467 4.23705 19.919 4.65901 20.341C5.08097 20.7629 5.65326 21 6.25 21H8.75C9.34674 21 9.91903 20.7629 10.341 20.341C10.7629 19.919 11 19.3467 11 18.75V5.25C11 4.65326 10.7629 4.08097 10.341 3.65901C9.91903 3.23705 9.34674 3 8.75 3H6.25ZM15.25 3C14.6533 3 14.081 3.23705 13.659 3.65901C13.2371 4.08097 13 4.65326 13 5.25V18.75C13 19.3467 13.2371 19.919 13.659 20.341C14.081 20.7629 14.6533 21 15.25 21H17.75C18.0455 21 18.3381 20.9418 18.611 20.8287C18.884 20.7157 19.1321 20.5499 19.341 20.341C19.5499 20.1321 19.7157 19.884 19.8287 19.611C19.9418 19.3381 20 19.0455 20 18.75V5.25C20 4.95453 19.9418 4.66194 19.8287 4.38896C19.7157 4.11598 19.5499 3.86794 19.341 3.65901C19.1321 3.45008 18.884 3.28434 18.611 3.17127C18.3381 3.0582 18.0455 3 17.75 3H15.25Z" fill="#0EA5E9"/>
</svg>
