<svg xmlns="http://www.w3.org/2000/svg" width="21" height="22" fill="none" viewBox="0 0 21 22">
  <path fill="#6366F1" d="m2.613 1.21.094.083 18 18a1 1 0 0 1-1.32 1.497l-.094-.083-3.068-3.068a7.009 7.009 0 0 1-1.893.353l-.331.008H8.405l1.304 1.303.077.087A1 1 0 0 1 8.39 20.8l-.095-.083-3.005-3.005-.077-.087a1 1 0 0 1-.006-1.232l.083-.095 3.005-3.005.088-.078a1 1 0 0 1 1.232-.006l.095.084.077.087a1 1 0 0 1 .006 1.232l-.083.095-1.294 1.292h5.586c.187 0 .372-.01.553-.03L5.348 6.761A4.996 4.996 0 0 0 3 11.001c0 .918.248 1.779.68 2.519l.135.218a1 1 0 0 1-1.627 1.164A6.952 6.952 0 0 1 1 11a6.99 6.99 0 0 1 2.908-5.679L1.293 2.707a1 1 0 0 1 1.32-1.498v.001ZM19 6.681c.32 0 .603.15.787.382l.053.075.017.027A6.964 6.964 0 0 1 21 11.001c0 1.977-.82 3.762-2.138 5.035l-1.415-1.414A4.985 4.985 0 0 0 19 11.001c0-.926-.252-1.793-.69-2.537l-.138-.22A1 1 0 0 1 19 6.683v-.002Zm-5.375-5.47.087.077 3.006 3.005a1 1 0 0 1 .077 1.327l-.078.087-3.005 3.006a1 1 0 0 1-1.492-1.327l.078-.088L13.595 6H8.826L6.911 4.085c.278-.043.56-.07.848-.08l.24-.004h5.598l-1.299-1.298a1 1 0 0 1-.078-1.327l.078-.087a1 1 0 0 1 1.327-.078Z"/>
</svg>
