<svg width="24" height="24" viewBox="0 0 24 24" fill="none" xmlns="http://www.w3.org/2000/svg">
<path d="M3.61299 2.21L3.70699 2.293L21.707 20.293C21.8863 20.473 21.9905 20.7144 21.9982 20.9684C22.006 21.2223 21.9168 21.4697 21.7487 21.6603C21.5807 21.8508 21.3464 21.9703 21.0935 21.9944C20.8406 22.0185 20.588 21.9454 20.387 21.79L20.293 21.707L17.225 18.639C16.6132 18.8432 15.9762 18.962 15.332 18.992L15.001 19H9.40499L10.709 20.303L10.786 20.39C10.9361 20.5817 11.0112 20.8215 10.9971 21.0646C10.983 21.3076 10.8807 21.5372 10.7094 21.7102C10.5381 21.8832 10.3096 21.9878 10.0666 22.0043C9.82374 22.0209 9.58315 21.9482 9.38999 21.8L9.29499 21.717L6.28999 18.712L6.21299 18.625C6.0746 18.4498 5.99882 18.2333 5.99774 18.01C5.99665 17.7868 6.07031 17.5696 6.20699 17.393L6.28999 17.298L9.29499 14.293L9.38299 14.215C9.5582 14.0766 9.77469 14.0008 9.99796 13.9997C10.2212 13.9987 10.4384 14.0723 10.615 14.209L10.71 14.293L10.787 14.38C10.9254 14.5552 11.0012 14.7717 11.0023 14.995C11.0033 15.2182 10.9297 15.4355 10.793 15.612L10.71 15.707L9.41599 16.999H15.002C15.189 16.999 15.374 16.989 15.555 16.969L6.34799 7.761C5.62898 8.21042 5.03617 8.83544 4.6254 9.57721C4.21463 10.319 3.9994 11.1531 3.99999 12.001C3.99999 12.919 4.24799 13.78 4.67999 14.52L4.81499 14.738C4.96935 14.9538 5.03168 15.222 4.98826 15.4837C4.94485 15.7454 4.79925 15.9791 4.58349 16.1335C4.36774 16.2879 4.09951 16.3502 3.8378 16.3068C3.57609 16.2634 3.34235 16.1178 3.18799 15.902C2.41076 14.7494 1.99694 13.3902 1.99999 12C1.99924 10.8906 2.26259 9.79687 2.76825 8.80936C3.27392 7.82185 4.00738 6.96889 4.90799 6.321L2.29299 3.707C2.11174 3.52746 2.00596 3.28543 1.99731 3.03045C1.98866 2.77548 2.07779 2.52683 2.24646 2.33542C2.41513 2.14401 2.65058 2.0243 2.90462 2.0008C3.15866 1.9773 3.41207 2.05178 3.61299 2.209V2.21ZM20 7.681C20.32 7.681 20.603 7.831 20.787 8.063L20.84 8.138L20.857 8.165C21.6052 9.30424 22.0026 10.638 22 12.001C22 13.978 21.18 15.763 19.862 17.036L18.447 15.622C18.9383 15.1556 19.3294 14.594 19.5964 13.9714C19.8634 13.3489 20.0007 12.6784 20 12.001C20 11.075 19.748 10.208 19.31 9.464L19.172 9.244C19.0701 9.09362 19.0111 8.91832 19.0013 8.73693C18.9915 8.55553 19.0313 8.37489 19.1164 8.21441C19.2015 8.05393 19.3287 7.91967 19.4844 7.82604C19.6401 7.73242 19.8183 7.68297 20 7.683V7.681ZM14.625 2.211L14.712 2.288L17.718 5.293C17.8912 5.46634 17.9947 5.69724 18.0089 5.94186C18.0231 6.18648 17.947 6.42779 17.795 6.62L17.717 6.707L14.712 9.713C14.5317 9.89381 14.2891 9.9988 14.0338 10.0064C13.7786 10.0141 13.5301 9.92381 13.3393 9.75411C13.1485 9.58441 13.0299 9.34815 13.0077 9.09377C12.9855 8.8394 13.0615 8.58617 13.22 8.386L13.298 8.298L14.595 7H9.82599L7.91099 5.085C8.18899 5.042 8.47099 5.015 8.75899 5.005L8.99899 5.001H14.597L13.298 3.703C13.1247 3.52979 13.021 3.29896 13.0066 3.05434C12.9922 2.80972 13.0682 2.56833 13.22 2.376L13.298 2.289C13.4712 2.11567 13.702 2.01198 13.9467 1.9976C14.1913 1.98322 14.4327 2.05916 14.625 2.211V2.211Z" fill="black"/>
</svg>
