<svg width="24" height="24" viewBox="0 0 24 24" fill="none" xmlns="http://www.w3.org/2000/svg">
<path d="M14.712 2.289L14.625 2.211C14.4327 2.05916 14.1913 1.98322 13.9467 1.9976C13.7021 2.01198 13.4712 2.11567 13.298 2.289L13.22 2.376C13.0682 2.56817 12.9923 2.80939 13.0067 3.05384C13.0211 3.2983 13.1248 3.52895 13.298 3.702L14.597 4.999H8.99901L8.75902 5.003C6.94606 5.0647 5.22793 5.82808 3.96697 7.13214C2.70601 8.4362 2.00078 10.179 2.00002 11.993C1.99712 13.3824 2.41133 14.7407 3.18901 15.892C3.34324 16.1076 3.5768 16.2531 3.83832 16.2966C4.09984 16.34 4.36789 16.2777 4.58351 16.1235C4.79914 15.9693 4.94466 15.7357 4.98808 15.4742C5.03149 15.2127 4.96924 14.9446 4.81502 14.729L4.68001 14.511C4.23739 13.7515 4.00297 12.8886 4.00041 12.0095C3.99786 11.1304 4.22726 10.2662 4.66547 9.50413C5.10367 8.74204 5.73517 8.10904 6.49622 7.66902C7.25726 7.229 8.12092 6.99754 9.00002 6.998H14.595L13.298 8.295L13.22 8.382C13.0576 8.58169 12.9786 8.83634 12.9993 9.09287C13.0201 9.3494 13.1391 9.58803 13.3315 9.759C13.5238 9.92997 13.7748 10.0201 14.032 10.0106C14.2892 10.0011 14.5328 9.8927 14.712 9.708L17.718 6.705L17.795 6.618C17.9468 6.42583 18.0227 6.18461 18.0083 5.94016C17.9939 5.69571 17.8903 5.46505 17.717 5.292L14.712 2.289V2.289ZM20.787 8.06C20.659 7.89566 20.4827 7.77546 20.2829 7.71625C20.0832 7.65703 19.8699 7.66175 19.673 7.72975C19.476 7.79775 19.3053 7.92562 19.1846 8.09547C19.0639 8.26532 18.9994 8.46865 19 8.677C19 8.886 19.064 9.079 19.172 9.238C19.6692 9.9912 19.9532 10.865 19.9937 11.7666C20.0343 12.6682 19.8298 13.564 19.4022 14.3587C18.9746 15.1535 18.3397 15.8176 17.5649 16.2805C16.7902 16.7435 15.9045 16.988 15.002 16.988H9.41401L10.708 15.698L10.791 15.602C10.9272 15.4256 11.0006 15.2088 10.9995 14.986C10.9984 14.7631 10.9229 14.547 10.785 14.372L10.708 14.284L10.613 14.2C10.4364 14.0635 10.2192 13.9899 9.99598 13.991C9.77276 13.9921 9.5563 14.0678 9.38101 14.206L9.29302 14.284L6.28802 17.287L6.20502 17.382C6.06858 17.5585 5.99506 17.7755 5.99615 17.9985C5.99724 18.2216 6.07287 18.4379 6.21102 18.613L6.28802 18.7L9.29302 21.703L9.38801 21.787C9.58108 21.9361 9.82201 22.0095 10.0654 21.9934C10.3088 21.9773 10.538 21.8727 10.7097 21.6994C10.8814 21.5261 10.9838 21.296 10.9977 21.0525C11.0116 20.8089 10.9359 20.5687 10.785 20.377L10.708 20.29L9.40402 18.987H15L15.24 18.984C16.4908 18.941 17.7071 18.5634 18.7622 17.8904C19.8174 17.2175 20.6727 16.2739 21.2391 15.1579C21.8055 14.0419 22.0623 12.7945 21.9826 11.5456C21.9029 10.2966 21.4897 9.09192 20.786 8.057V8.06H20.787Z" fill="black"/>
</svg>
