<svg xmlns="http://www.w3.org/2000/svg" width="112" height="38" fill="none" viewBox="0 0 112 38">
  <g filter="url(#a)">
    <rect width="38" height="38" fill="url(#b)" rx="11.875"/>
  </g>
  <g filter="url(#c)">
    <circle cx="19.194" cy="19.194" r="12.123" fill="url(#d)"/>
  </g>
  <path fill="url(#e)" d="M13.742 20.885c-.03-.95.086-1.753.347-2.41.261-.659.64-1.158 1.137-1.5.503-.341 1.093-.512 1.77-.512.473 0 .925.098 1.357.294.432.195.922.534 1.469 1.017.291.256.537.452.738.587.201.13.432.196.693.196.357 0 .65-.138.882-.414.23-.282.339-.726.324-1.334h2.456c.035.955-.08 1.76-.347 2.419-.266.657-.65 1.157-1.152 1.499-.503.341-1.088.512-1.756.512-.497 0-.964-.103-1.401-.309-.432-.21-.912-.547-1.439-1.01a6.857 6.857 0 0 0-.746-.595 1.156 1.156 0 0 0-.663-.188c-.356 0-.65.136-.881.407-.231.266-.34.713-.324 1.341h-2.464Z"/>
  <path fill="url(#f)" d="M51.89 12.938v-3.18h14.983v3.18h-5.585V28h-3.812V12.938H51.89ZM69.27 28V14.318h3.795V28H69.27Zm1.906-15.445a2.061 2.061 0 0 1-1.452-.562c-.398-.38-.597-.834-.597-1.362 0-.523.2-.971.597-1.345.404-.38.888-.57 1.452-.57s1.045.19 1.443.57c.404.374.606.822.606 1.345 0 .528-.202.982-.606 1.362a2.03 2.03 0 0 1-1.443.562Zm8.723-2.797V28h-3.795V9.758h3.795Z"/>
  <path fill="url(#g)" d="M87.979 28.223c-1.04 0-1.98-.267-2.824-.802-.837-.54-1.502-1.333-1.995-2.378-.487-1.051-.73-2.34-.73-3.866 0-1.568.252-2.871.757-3.91.505-1.046 1.176-1.826 2.013-2.343a5.158 5.158 0 0 1 2.77-.784c.766 0 1.404.13 1.915.392.517.255.932.576 1.247.962.32.38.564.754.73 1.122h.116V9.758h3.786V28h-3.741v-2.191h-.16c-.179.38-.43.757-.757 1.131-.321.368-.74.674-1.256.918-.511.243-1.135.365-1.871.365Zm1.203-3.02c.611 0 1.128-.166 1.55-.499.427-.338.754-.81.98-1.416.23-.606.346-1.315.346-2.129 0-.813-.112-1.52-.338-2.12-.226-.6-.552-1.063-.98-1.39-.427-.326-.947-.49-1.558-.49-.624 0-1.15.17-1.577.508-.428.339-.751.808-.971 1.408-.22.6-.33 1.294-.33 2.084 0 .796.11 1.5.33 2.111.226.606.55 1.08.97 1.425.428.339.954.508 1.578.508Zm13.603 3.055c-.873 0-1.651-.151-2.333-.454a3.755 3.755 0 0 1-1.622-1.363c-.391-.605-.587-1.36-.587-2.262 0-.76.139-1.399.418-1.915a3.39 3.39 0 0 1 1.14-1.247 5.535 5.535 0 0 1 1.639-.713c.618-.16 1.265-.273 1.942-.338a49.17 49.17 0 0 0 1.924-.232c.487-.077.84-.19 1.06-.339.22-.148.33-.368.33-.659v-.053c0-.564-.179-1-.535-1.31-.35-.308-.849-.463-1.496-.463-.683 0-1.227.152-1.63.455a2.091 2.091 0 0 0-.802 1.122l-3.51-.285a4.768 4.768 0 0 1 1.052-2.156c.522-.611 1.196-1.08 2.022-1.407.831-.333 1.793-.499 2.886-.499.76 0 1.487.09 2.182.267a5.7 5.7 0 0 1 1.861.829c.547.374.977.855 1.292 1.443.315.582.472 1.28.472 2.093V28h-3.598v-1.897h-.107a3.87 3.87 0 0 1-.882 1.131c-.368.32-.811.573-1.327.757-.517.178-1.114.267-1.791.267Zm1.087-2.618c.558 0 1.051-.11 1.479-.33a2.618 2.618 0 0 0 1.006-.909c.244-.38.365-.81.365-1.291v-1.452a2.016 2.016 0 0 1-.49.214 8.86 8.86 0 0 1-.685.169 42.41 42.41 0 0 1-.766.134 93.53 93.53 0 0 0-.695.098 4.69 4.69 0 0 0-1.167.311 1.862 1.862 0 0 0-.775.58c-.184.237-.276.534-.276.89 0 .517.187.912.561 1.185.38.267.861.4 1.443.4Z"/>
  <defs>
    <linearGradient id="b" x1="0" x2="38" y1="0" y2="38" gradientUnits="userSpaceOnUse">
      <stop stop-color="#A78BFA"/>
      <stop offset="0" stop-color="#A78BFA"/>
      <stop offset="1" stop-color="#8B5CF6"/>
    </linearGradient>
    <linearGradient id="d" x1="7.072" x2="31.317" y1="7.072" y2="31.317" gradientUnits="userSpaceOnUse">
      <stop stop-color="#F8FAFC"/>
      <stop offset="1" stop-color="#E2E8F0"/>
    </linearGradient>
    <linearGradient id="e" x1="12.613" x2="34.484" y1="4.406" y2="18.886" gradientUnits="userSpaceOnUse">
      <stop stop-color="#1E293B"/>
      <stop offset="1" stop-color="#0F172A"/>
    </linearGradient>
    <linearGradient id="f" x1="51" x2="81.5" y1="4" y2="34" gradientUnits="userSpaceOnUse">
      <stop stop-color="#fff"/>
      <stop offset="1" stop-color="#E2E8F0"/>
    </linearGradient>
    <linearGradient id="g" x1="81.5" x2="112" y1="4" y2="34" gradientUnits="userSpaceOnUse">
      <stop stop-color="#A78BFA"/>
      <stop offset="1" stop-color="#8B5CF6"/>
    </linearGradient>
    <filter id="a" width="38" height="39.188" x="0" y="0" color-interpolation-filters="sRGB" filterUnits="userSpaceOnUse">
      <feFlood flood-opacity="0" result="BackgroundImageFix"/>
      <feBlend in="SourceGraphic" in2="BackgroundImageFix" result="shape"/>
      <feColorMatrix in="SourceAlpha" result="hardAlpha" values="0 0 0 0 0 0 0 0 0 0 0 0 0 0 0 0 0 0 127 0"/>
      <feOffset dy="1.188"/>
      <feGaussianBlur stdDeviation="1.188"/>
      <feComposite in2="hardAlpha" k2="-1" k3="1" operator="arithmetic"/>
      <feColorMatrix values="0 0 0 0 0 0 0 0 0 0 0 0 0 0 0 0 0 0 0.05 0"/>
      <feBlend in2="shape" result="effect1_innerShadow_7_2"/>
    </filter>
    <filter id="c" width="27.808" height="27.808" x="5.29" y="5.884" color-interpolation-filters="sRGB" filterUnits="userSpaceOnUse">
      <feFlood flood-opacity="0" result="BackgroundImageFix"/>
      <feColorMatrix in="SourceAlpha" result="hardAlpha" values="0 0 0 0 0 0 0 0 0 0 0 0 0 0 0 0 0 0 127 0"/>
      <feMorphology in="SourceAlpha" radius=".594" result="effect1_dropShadow_7_2"/>
      <feOffset dy=".594"/>
      <feGaussianBlur stdDeviation=".594"/>
      <feComposite in2="hardAlpha" operator="out"/>
      <feColorMatrix values="0 0 0 0 0 0 0 0 0 0 0 0 0 0 0 0 0 0 0.1 0"/>
      <feBlend in2="BackgroundImageFix" result="effect1_dropShadow_7_2"/>
      <feColorMatrix in="SourceAlpha" result="hardAlpha" values="0 0 0 0 0 0 0 0 0 0 0 0 0 0 0 0 0 0 127 0"/>
      <feOffset dy=".594"/>
      <feGaussianBlur stdDeviation=".891"/>
      <feComposite in2="hardAlpha" operator="out"/>
      <feColorMatrix values="0 0 0 0 0 0 0 0 0 0 0 0 0 0 0 0 0 0 0.1 0"/>
      <feBlend in2="effect1_dropShadow_7_2" result="effect2_dropShadow_7_2"/>
      <feBlend in="SourceGraphic" in2="effect2_dropShadow_7_2" result="shape"/>
    </filter>
  </defs>
</svg>
