<svg width="268" height="55" viewBox="0 0 268 55" fill="none" xmlns="http://www.w3.org/2000/svg">
<path d="M0.59304 35.5575C0.46875 32.0419 0.850497 29.0323 1.73828 26.5288C2.62607 24.0252 3.9755 22.1076 5.78658 20.7759C7.59766 19.4442 9.80824 18.7784 12.4183 18.7784C14.0341 18.7784 15.6055 19.1069 17.1325 19.7638C18.6594 20.4208 20.3995 21.6104 22.3526 23.3327C23.2937 24.1495 24.1016 24.7976 24.7763 25.277C25.451 25.7564 26.25 25.9961 27.1733 25.9961C28.3452 25.9961 29.3306 25.5256 30.1296 24.5845C30.9286 23.6257 31.2926 22.0721 31.2216 19.9236H40.8896C41.0316 23.4215 40.641 26.4222 39.7177 28.9258C38.7944 31.4293 37.4183 33.3558 35.5895 34.7053C33.7784 36.0369 31.6033 36.7028 29.0643 36.7028C27.3242 36.7028 25.6729 36.3477 24.1104 35.6374C22.5657 34.9272 20.87 33.7642 19.0234 32.1484C17.9936 31.2251 17.168 30.5504 16.5465 30.1243C15.9428 29.6982 15.1971 29.4851 14.3093 29.4851C13.1197 29.4851 12.1342 29.9556 11.353 30.8967C10.5717 31.82 10.2077 33.3736 10.261 35.5575H0.59304ZM47.7344 11.1612V0.454544H93.837V11.1612H77.2976V55H64.3004V11.1612H47.7344ZM113.459 0.454544V55H100.276V0.454544H113.459ZM121.736 55V0.454544H134.919V44.2933H157.611V55H121.736ZM184.597 55H164.436V0.454544H184.571C190.128 0.454544 194.913 1.54652 198.926 3.73047C202.957 5.89666 206.064 9.02166 208.248 13.1055C210.432 17.1715 211.524 22.0366 211.524 27.7006C211.524 33.3825 210.432 38.2653 208.248 42.3491C206.082 46.4329 202.983 49.5668 198.953 51.7507C194.922 53.9169 190.137 55 184.597 55ZM177.619 43.7607H184.091C187.145 43.7607 189.729 43.2457 191.842 42.2159C193.972 41.1683 195.579 39.4727 196.662 37.1289C197.763 34.7674 198.314 31.6246 198.314 27.7006C198.314 23.7766 197.763 20.6516 196.662 18.3256C195.562 15.9819 193.937 14.2951 191.788 13.2653C189.658 12.2177 187.03 11.6939 183.905 11.6939H177.619V43.7607ZM227.797 55H213.628L232.032 0.454544H249.583L267.987 55H253.818L241.007 14.1974H240.581L227.797 55ZM225.906 33.5334H255.522V43.5476H225.906V33.5334Z" fill="#F8FAFC"/>
</svg>
